<svg xmlns="http://www.w3.org/2000/svg" xmlns:xlink="http://www.w3.org/1999/xlink"  version="1.1" width="256" height="256" viewBox="0 0 256 256" xml:space="preserve">

<defs>
</defs>
<g style="stroke: #5063ee; stroke-width: 0; stroke-dasharray: none; stroke-linecap: butt; stroke-linejoin: miter; stroke-miterlimit: 10; fill: none; fill-rule: nonzero; opacity: 1;" transform="translate(1.4065934065934016 1.4065934065934016) scale(2.81 2.81)" >
	<path d="M 45 90 c -18.321 0 -33.226 -14.905 -33.226 -33.227 c 0 -18.321 14.905 -33.226 33.226 -33.226 c 18.321 0 33.227 14.905 33.227 33.226 C 78.227 75.095 63.321 90 45 90 z M 45 27.548 c -16.115 0 -29.226 13.11 -29.226 29.226 S 28.885 86 45 86 s 29.227 -13.111 29.227 -29.227 S 61.115 27.548 45 27.548 z" style="stroke: #5063ee; stroke-width: 1; stroke-dasharray: none; stroke-linecap: butt; stroke-linejoin: miter; stroke-miterlimit: 10; fill: rgb(0,0,0); fill-rule: nonzero; opacity: 1;" transform=" matrix(1 0 0 1 0 0) " stroke-linecap="round" />
	<path d="M 23.088 36.533 c -0.87 0 -1.67 -0.572 -1.922 -1.45 l -4.05 -14.145 c -1.432 -5 -0.458 -10.25 2.673 -14.403 S 27.699 0 32.9 0 h 24.2 c 5.201 0 9.979 2.382 13.11 6.535 c 3.131 4.153 4.105 9.403 2.674 14.403 l -4.05 14.145 c -0.305 1.062 -1.411 1.676 -2.474 1.373 c -1.062 -0.304 -1.676 -1.412 -1.372 -2.473 l 4.05 -14.145 c 1.083 -3.782 0.346 -7.753 -2.022 -10.894 S 61.033 4 57.1 4 H 32.9 c -3.934 0 -7.548 1.802 -9.916 4.943 c -2.368 3.142 -3.105 7.112 -2.022 10.894 l 4.05 14.145 c 0.304 1.062 -0.311 2.169 -1.372 2.474 C 23.456 36.508 23.271 36.533 23.088 36.533 z" style="stroke: #5063ee; stroke-width: 1; stroke-dasharray: none; stroke-linecap: butt; stroke-linejoin: miter; stroke-miterlimit: 10; fill: rgb(0,0,0); fill-rule: nonzero; opacity: 1;" transform=" matrix(1 0 0 1 0 0) " stroke-linecap="round" />
	<path d="M 31.808 67.781 c -1.104 0 -2 -0.896 -2 -2 V 49.434 c 0 -1.104 0.896 -2 2 -2 s 2 0.896 2 2 v 16.348 C 33.808 66.886 32.913 67.781 31.808 67.781 z" style="stroke: #5063ee; stroke-width: 1; stroke-dasharray: none; stroke-linecap: butt; stroke-linejoin: miter; stroke-miterlimit: 10; fill: rgb(0,0,0); fill-rule: nonzero; opacity: 1;" transform=" matrix(1 0 0 1 0 0) " stroke-linecap="round" />
	<path d="M 39.635 67.781 c -0.527 0 -1.052 -0.207 -1.445 -0.617 l -7.827 -8.174 c -0.741 -0.773 -0.741 -1.992 0 -2.766 l 7.827 -8.174 c 0.763 -0.798 2.03 -0.825 2.828 -0.062 s 0.825 2.029 0.061 2.827 l -6.502 6.791 l 6.502 6.791 c 0.764 0.798 0.737 2.063 -0.061 2.827 C 40.63 67.597 40.132 67.781 39.635 67.781 z" style="stroke: #5063ee; stroke-width: 1; stroke-dasharray: none; stroke-linecap: butt; stroke-linejoin: miter; stroke-miterlimit: 10; fill: rgb(0,0,0); fill-rule: nonzero; opacity: 1;" transform=" matrix(1 0 0 1 0 0) " stroke-linecap="round" />
	<path d="M 53.465 67.781 c -4.7 0 -8.523 -4.563 -8.523 -10.174 s 3.823 -10.174 8.523 -10.174 c 1.725 0 3.385 0.609 4.801 1.762 c 0.856 0.697 0.985 1.957 0.288 2.813 c -0.696 0.856 -1.957 0.986 -2.813 0.288 c -0.694 -0.564 -1.48 -0.863 -2.275 -0.863 c -2.452 0 -4.523 2.827 -4.523 6.174 s 2.071 6.174 4.523 6.174 c 0.985 0 1.936 -0.45 2.727 -1.281 v -1.463 h -1.979 c -1.104 0 -2 -0.896 -2 -2 s 0.896 -2 2 -2 h 3.979 c 1.104 0 2 0.896 2 2 v 4.192 c 0 0.437 -0.143 0.86 -0.406 1.208 C 58.175 66.563 55.871 67.781 53.465 67.781 z" style="stroke: #5063ee; stroke-width: 1; stroke-dasharray: none; stroke-linecap: butt; stroke-linejoin: miter; stroke-miterlimit: 10; fill: rgb(0,0,0); fill-rule: nonzero; opacity: 1;" transform=" matrix(1 0 0 1 0 0) " stroke-linecap="round" />
</g>
</svg>